<svg width="95" height="111" viewBox="0 0 95 111" fill="none" xmlns="http://www.w3.org/2000/svg">
<mask id="path-1-outside-1_5_4" maskUnits="userSpaceOnUse" x="0" y="0" width="95" height="111" fill="black">
<rect fill="white" width="95" height="111"/>
<path d="M22.608 103L8.4 88.792V22.872L22.608 8.66399H71.12L85.456 22.872V41.944H62.16V31.32L57.552 26.84H36.944L32.336 31.32V80.344L36.944 84.824H58.32L63.056 80.344V69.592H86.224V88.792L72.016 103H22.608Z"/>
</mask>
<path d="M22.608 103L8.4 88.792V22.872L22.608 8.66399H71.12L85.456 22.872V41.944H62.16V31.32L57.552 26.84H36.944L32.336 31.32V80.344L36.944 84.824H58.32L63.056 80.344V69.592H86.224V88.792L72.016 103H22.608Z" fill="#98C0EF"/>
<path d="M22.608 103L16.9511 108.657L19.2943 111H22.608V103ZM8.4 88.792H0.4V92.1057L2.74315 94.4489L8.4 88.792ZM8.4 22.872L2.74315 17.2151L0.4 19.5583V22.872H8.4ZM22.608 8.66399V0.663994H19.2943L16.9511 3.00714L22.608 8.66399ZM71.12 8.66399L76.7514 2.98183L74.4127 0.663994H71.12V8.66399ZM85.456 22.872H93.456V19.5373L91.0874 17.1898L85.456 22.872ZM85.456 41.944V49.944H93.456V41.944H85.456ZM62.16 41.944H54.16V49.944H62.16V41.944ZM62.16 31.32H70.16V27.9401L67.7366 25.584L62.16 31.32ZM57.552 26.84L63.1286 21.104L60.7999 18.84H57.552V26.84ZM36.944 26.84V18.84H33.6961L31.3674 21.104L36.944 26.84ZM32.336 31.32L26.7594 25.584L24.336 27.9401V31.32H32.336ZM32.336 80.344H24.336V83.7239L26.7594 86.08L32.336 80.344ZM36.944 84.824L31.3674 90.56L33.6961 92.824H36.944V84.824ZM58.32 84.824V92.824H61.5043L63.8176 90.6357L58.32 84.824ZM63.056 80.344L68.5536 86.1557L71.056 83.7886V80.344H63.056ZM63.056 69.592V61.592H55.056V69.592H63.056ZM86.224 69.592H94.224V61.592H86.224V69.592ZM86.224 88.792L91.8809 94.4489L94.224 92.1057V88.792H86.224ZM72.016 103V111H75.3297L77.6729 108.657L72.016 103ZM28.2649 97.3431L14.0569 83.1351L2.74315 94.4489L16.9511 108.657L28.2649 97.3431ZM16.4 88.792V22.872H0.4V88.792H16.4ZM14.0569 28.5288L28.2649 14.3208L16.9511 3.00714L2.74315 17.2151L14.0569 28.5288ZM22.608 16.664H71.12V0.663994H22.608V16.664ZM65.4886 14.3462L79.8246 28.5542L91.0874 17.1898L76.7514 2.98183L65.4886 14.3462ZM77.456 22.872V41.944H93.456V22.872H77.456ZM85.456 33.944H62.16V49.944H85.456V33.944ZM70.16 41.944V31.32H54.16V41.944H70.16ZM67.7366 25.584L63.1286 21.104L51.9754 32.576L56.5834 37.056L67.7366 25.584ZM57.552 18.84H36.944V34.84H57.552V18.84ZM31.3674 21.104L26.7594 25.584L37.9126 37.056L42.5206 32.576L31.3674 21.104ZM24.336 31.32V80.344H40.336V31.32H24.336ZM26.7594 86.08L31.3674 90.56L42.5206 79.088L37.9126 74.608L26.7594 86.08ZM36.944 92.824H58.32V76.824H36.944V92.824ZM63.8176 90.6357L68.5536 86.1557L57.5584 74.5323L52.8224 79.0123L63.8176 90.6357ZM71.056 80.344V69.592H55.056V80.344H71.056ZM63.056 77.592H86.224V61.592H63.056V77.592ZM78.224 69.592V88.792H94.224V69.592H78.224ZM80.5672 83.1351L66.3592 97.3431L77.6729 108.657L91.8809 94.4489L80.5672 83.1351ZM72.016 95H22.608V111H72.016V95Z" fill="#184360" mask="url(#path-1-outside-1_5_4)"/>
</svg>
