<svg width="616" height="97" viewBox="0 0 616 97" fill="none" xmlns="http://www.w3.org/2000/svg">
<mask id="path-1-outside-1_5_2" maskUnits="userSpaceOnUse" x="0" y="0" width="616" height="97" fill="black">
<rect fill="white" width="616" height="97"/>
<path d="M14.608 75L4.528 64.92V14.328L14.608 4.248H46.576L56.368 14.04L50.8 19.704L43.12 12.024H18.544L13.264 17.304V61.944L18.544 67.224H43.888L51.664 59.448L57.232 65.112L47.248 75H14.608ZM98.0763 75L87.9963 64.92V34.872L98.0763 24.792H121.884L131.964 34.872V64.92L121.884 75H98.0763ZM101.724 68.28H118.236L123.516 63L123.42 36.792L118.236 31.512H101.724L96.4443 36.792V63L101.724 68.28ZM176.103 75L166.023 64.92V34.872L176.103 24.792H194.535L202.311 32.76V4.248H210.759V75H202.311V67.128L194.535 75H176.103ZM192.423 68.28L202.311 58.296V41.592L192.423 31.512H179.751L174.471 36.792V63L179.751 68.28H192.423ZM256.089 92.952L265.113 71.544H261.561L240.921 24.792H250.233L266.361 63.192H268.569L283.449 24.792H292.665L264.633 92.952H256.089ZM322.946 75V24.792H331.394V33.816L340.13 24.792H358.658L367.49 33.72L376.13 24.792H394.658L404.738 34.872V75H396.29V36.984L391.202 31.512H378.338L368.642 41.304V75H360.194L360.29 36.984L355.106 31.512H342.338L331.394 42.648V75H322.946ZM446.569 75L436.585 64.92V53.496L446.569 43.416H472.105V37.176L466.921 31.896H443.113V24.792H470.569L480.553 34.872V75H472.105V67.224L464.329 75H446.569ZM450.313 68.28H462.217L472.105 58.488V50.04L450.313 50.136L445.033 55.32V63L450.313 68.28ZM526.375 75L517.543 66.264V31.512H512.263V24.792H517.735L519.847 11.928H525.991V24.792H536.647V31.512H525.991V63.288L530.503 67.992H538.855V75H526.375ZM579.171 75L569.091 64.92V34.872L579.171 24.792H601.539L611.619 34.872V53.016H577.539V62.712L582.819 67.992H610.755V75H579.171ZM577.539 46.296H603.171V36.792L597.891 31.512H582.819L577.539 36.792V46.296Z"/>
</mask>
<path d="M14.608 75L4.528 64.92V14.328L14.608 4.248H46.576L56.368 14.04L50.8 19.704L43.12 12.024H18.544L13.264 17.304V61.944L18.544 67.224H43.888L51.664 59.448L57.232 65.112L47.248 75H14.608ZM98.0763 75L87.9963 64.92V34.872L98.0763 24.792H121.884L131.964 34.872V64.92L121.884 75H98.0763ZM101.724 68.28H118.236L123.516 63L123.42 36.792L118.236 31.512H101.724L96.4443 36.792V63L101.724 68.28ZM176.103 75L166.023 64.92V34.872L176.103 24.792H194.535L202.311 32.76V4.248H210.759V75H202.311V67.128L194.535 75H176.103ZM192.423 68.28L202.311 58.296V41.592L192.423 31.512H179.751L174.471 36.792V63L179.751 68.28H192.423ZM256.089 92.952L265.113 71.544H261.561L240.921 24.792H250.233L266.361 63.192H268.569L283.449 24.792H292.665L264.633 92.952H256.089ZM322.946 75V24.792H331.394V33.816L340.13 24.792H358.658L367.49 33.72L376.13 24.792H394.658L404.738 34.872V75H396.29V36.984L391.202 31.512H378.338L368.642 41.304V75H360.194L360.29 36.984L355.106 31.512H342.338L331.394 42.648V75H322.946ZM446.569 75L436.585 64.92V53.496L446.569 43.416H472.105V37.176L466.921 31.896H443.113V24.792H470.569L480.553 34.872V75H472.105V67.224L464.329 75H446.569ZM450.313 68.28H462.217L472.105 58.488V50.04L450.313 50.136L445.033 55.32V63L450.313 68.28ZM526.375 75L517.543 66.264V31.512H512.263V24.792H517.735L519.847 11.928H525.991V24.792H536.647V31.512H525.991V63.288L530.503 67.992H538.855V75H526.375ZM579.171 75L569.091 64.92V34.872L579.171 24.792H601.539L611.619 34.872V53.016H577.539V62.712L582.819 67.992H610.755V75H579.171ZM577.539 46.296H603.171V36.792L597.891 31.512H582.819L577.539 36.792V46.296Z" fill="#98C0EF"/>
<path d="M14.608 75L11.7796 77.8284L12.9511 79H14.608V75ZM4.528 64.92H0.528V66.5769L1.69957 67.7484L4.528 64.92ZM4.528 14.328L1.69957 11.4996L0.528 12.6711V14.328H4.528ZM14.608 4.248V0.247995H12.9511L11.7796 1.41957L14.608 4.248ZM46.576 4.248L49.4044 1.41957L48.2329 0.247995H46.576V4.248ZM56.368 14.04L59.2205 16.8441L62.0008 14.0159L59.1964 11.2116L56.368 14.04ZM50.8 19.704L47.9716 22.5324L50.8243 25.3851L53.6525 22.5081L50.8 19.704ZM43.12 12.024L45.9484 9.19557L44.7769 8.024H43.12V12.024ZM18.544 12.024V8.024H16.8871L15.7156 9.19557L18.544 12.024ZM13.264 17.304L10.4356 14.4756L9.264 15.6471V17.304H13.264ZM13.264 61.944H9.264V63.6009L10.4356 64.7724L13.264 61.944ZM18.544 67.224L15.7156 70.0524L16.8871 71.224H18.544V67.224ZM43.888 67.224V71.224H45.5449L46.7164 70.0524L43.888 67.224ZM51.664 59.448L54.5165 56.6438L51.6883 53.7669L48.8356 56.6196L51.664 59.448ZM57.232 65.112L60.0467 67.9541L62.8783 65.1498L60.0845 62.3078L57.232 65.112ZM47.248 75V79H48.8935L50.0627 77.8421L47.248 75ZM17.4364 72.1716L7.35643 62.0916L1.69957 67.7484L11.7796 77.8284L17.4364 72.1716ZM8.528 64.92V14.328H0.528V64.92H8.528ZM7.35643 17.1564L17.4364 7.07642L11.7796 1.41957L1.69957 11.4996L7.35643 17.1564ZM14.608 8.248H46.576V0.247995H14.608V8.248ZM43.7476 7.07642L53.5396 16.8684L59.1964 11.2116L49.4044 1.41957L43.7476 7.07642ZM53.5155 11.2358L47.9475 16.8998L53.6525 22.5081L59.2205 16.8441L53.5155 11.2358ZM53.6284 16.8756L45.9484 9.19557L40.2916 14.8524L47.9716 22.5324L53.6284 16.8756ZM43.12 8.024H18.544V16.024H43.12V8.024ZM15.7156 9.19557L10.4356 14.4756L16.0924 20.1324L21.3724 14.8524L15.7156 9.19557ZM9.264 17.304V61.944H17.264V17.304H9.264ZM10.4356 64.7724L15.7156 70.0524L21.3724 64.3956L16.0924 59.1156L10.4356 64.7724ZM18.544 71.224H43.888V63.224H18.544V71.224ZM46.7164 70.0524L54.4924 62.2764L48.8356 56.6196L41.0596 64.3956L46.7164 70.0524ZM48.8115 62.2522L54.3795 67.9162L60.0845 62.3078L54.5165 56.6438L48.8115 62.2522ZM54.4173 62.2699L44.4333 72.1579L50.0627 77.8421L60.0467 67.9541L54.4173 62.2699ZM47.248 71H14.608V79H47.248V71ZM98.0763 75L95.2478 77.8284L96.4194 79H98.0763V75ZM87.9963 64.92H83.9963V66.5769L85.1678 67.7484L87.9963 64.92ZM87.9963 34.872L85.1678 32.0436L83.9963 33.2151V34.872H87.9963ZM98.0763 24.792V20.792H96.4194L95.2478 21.9636L98.0763 24.792ZM121.884 24.792L124.713 21.9636L123.541 20.792H121.884V24.792ZM131.964 34.872H135.964V33.2151L134.793 32.0436L131.964 34.872ZM131.964 64.92L134.793 67.7484L135.964 66.5769V64.92H131.964ZM121.884 75V79H123.541L124.713 77.8284L121.884 75ZM101.724 68.28L98.8958 71.1084L100.067 72.28H101.724V68.28ZM118.236 68.28V72.28H119.893L121.065 71.1084L118.236 68.28ZM123.516 63L126.345 65.8284L127.522 64.6508L127.516 62.9853L123.516 63ZM123.42 36.792L127.42 36.7773L127.414 35.1505L126.275 33.9896L123.42 36.792ZM118.236 31.512L121.091 28.7096L119.915 27.512H118.236V31.512ZM101.724 31.512V27.512H100.067L98.8958 28.6836L101.724 31.512ZM96.4443 36.792L93.6158 33.9636L92.4443 35.1351V36.792H96.4443ZM96.4443 63H92.4443V64.6569L93.6158 65.8284L96.4443 63ZM100.905 72.1716L90.8247 62.0916L85.1678 67.7484L95.2478 77.8284L100.905 72.1716ZM91.9963 64.92V34.872H83.9963V64.92H91.9963ZM90.8247 37.7004L100.905 27.6204L95.2478 21.9636L85.1678 32.0436L90.8247 37.7004ZM98.0763 28.792H121.884V20.792H98.0763V28.792ZM119.056 27.6204L129.136 37.7004L134.793 32.0436L124.713 21.9636L119.056 27.6204ZM127.964 34.872V64.92H135.964V34.872H127.964ZM129.136 62.0916L119.056 72.1716L124.713 77.8284L134.793 67.7484L129.136 62.0916ZM121.884 71H98.0763V79H121.884V71ZM101.724 72.28H118.236V64.28H101.724V72.28ZM121.065 71.1084L126.345 65.8284L120.688 60.1716L115.408 65.4516L121.065 71.1084ZM127.516 62.9853L127.42 36.7773L119.42 36.8066L119.516 63.0147L127.516 62.9853ZM126.275 33.9896L121.091 28.7096L115.382 34.3144L120.566 39.5944L126.275 33.9896ZM118.236 27.512H101.724V35.512H118.236V27.512ZM98.8958 28.6836L93.6158 33.9636L99.2727 39.6204L104.553 34.3404L98.8958 28.6836ZM92.4443 36.792V63H100.444V36.792H92.4443ZM93.6158 65.8284L98.8958 71.1084L104.553 65.4516L99.2727 60.1716L93.6158 65.8284ZM176.103 75L173.274 77.8284L174.446 79H176.103V75ZM166.023 64.92H162.023V66.5769L163.194 67.7484L166.023 64.92ZM166.023 34.872L163.194 32.0436L162.023 33.2151V34.872H166.023ZM176.103 24.792V20.792H174.446L173.274 21.9636L176.103 24.792ZM194.535 24.792L197.397 21.9983L196.22 20.792H194.535V24.792ZM202.311 32.76L199.448 35.5537L206.311 42.5859V32.76H202.311ZM202.311 4.248V0.247995H198.311V4.248H202.311ZM210.759 4.248H214.759V0.247995H210.759V4.248ZM210.759 75V79H214.759V75H210.759ZM202.311 75H198.311V79H202.311V75ZM202.311 67.128H206.311V57.3867L199.465 64.317L202.311 67.128ZM194.535 75V79H196.206L197.38 77.811L194.535 75ZM192.423 68.28V72.28H194.091L195.265 71.0947L192.423 68.28ZM202.311 58.296L205.153 61.1107L206.311 59.9415V58.296H202.311ZM202.311 41.592H206.311V39.9576L205.166 38.7909L202.311 41.592ZM192.423 31.512L195.278 28.7109L194.102 27.512H192.423V31.512ZM179.751 31.512V27.512H178.094L176.922 28.6836L179.751 31.512ZM174.471 36.792L171.642 33.9636L170.471 35.1351V36.792H174.471ZM174.471 63H170.471V64.6569L171.642 65.8284L174.471 63ZM179.751 68.28L176.922 71.1084L178.094 72.28H179.751V68.28ZM178.931 72.1716L168.851 62.0916L163.194 67.7484L173.274 77.8284L178.931 72.1716ZM170.023 64.92V34.872H162.023V64.92H170.023ZM168.851 37.7004L178.931 27.6204L173.274 21.9636L163.194 32.0436L168.851 37.7004ZM176.103 28.792H194.535V20.792H176.103V28.792ZM191.672 27.5857L199.448 35.5537L205.173 29.9663L197.397 21.9983L191.672 27.5857ZM206.311 32.76V4.248H198.311V32.76H206.311ZM202.311 8.248H210.759V0.247995H202.311V8.248ZM206.759 4.248V75H214.759V4.248H206.759ZM210.759 71H202.311V79H210.759V71ZM206.311 75V67.128H198.311V75H206.311ZM199.465 64.317L191.689 72.189L197.38 77.811L205.156 69.939L199.465 64.317ZM194.535 71H176.103V79H194.535V71ZM195.265 71.0947L205.153 61.1107L199.468 55.4813L189.58 65.4653L195.265 71.0947ZM206.311 58.296V41.592H198.311V58.296H206.311ZM205.166 38.7909L195.278 28.7109L189.567 34.3131L199.455 44.3931L205.166 38.7909ZM192.423 27.512H179.751V35.512H192.423V27.512ZM176.922 28.6836L171.642 33.9636L177.299 39.6204L182.579 34.3404L176.922 28.6836ZM170.471 36.792V63H178.471V36.792H170.471ZM171.642 65.8284L176.922 71.1084L182.579 65.4516L177.299 60.1716L171.642 65.8284ZM179.751 72.28H192.423V64.28H179.751V72.28ZM256.089 92.952L252.403 91.3983L250.062 96.952H256.089V92.952ZM265.113 71.544L268.798 73.0977L271.139 67.544H265.113V71.544ZM261.561 71.544L257.901 73.1595L258.954 75.544H261.561V71.544ZM240.921 24.792V20.792H234.782L237.261 26.4075L240.921 24.792ZM250.233 24.792L253.92 23.2431L252.891 20.792H250.233V24.792ZM266.361 63.192L262.673 64.7409L263.702 67.192H266.361V63.192ZM268.569 63.192V67.192H271.308L272.298 64.6373L268.569 63.192ZM283.449 24.792V20.792H280.709L279.719 23.3467L283.449 24.792ZM292.665 24.792L296.364 26.3134L298.635 20.792H292.665V24.792ZM264.633 92.952V96.952H267.313L268.332 94.4734L264.633 92.952ZM259.774 94.5057L268.798 73.0977L261.427 69.9903L252.403 91.3983L259.774 94.5057ZM265.113 67.544H261.561V75.544H265.113V67.544ZM265.22 69.9285L244.58 23.1765L237.261 26.4075L257.901 73.1595L265.22 69.9285ZM240.921 28.792H250.233V20.792H240.921V28.792ZM246.545 26.3409L262.673 64.7409L270.048 61.6431L253.92 23.2431L246.545 26.3409ZM266.361 67.192H268.569V59.192H266.361V67.192ZM272.298 64.6373L287.178 26.2373L279.719 23.3467L264.839 61.7467L272.298 64.6373ZM283.449 28.792H292.665V20.792H283.449V28.792ZM288.965 23.2706L260.933 91.4306L268.332 94.4734L296.364 26.3134L288.965 23.2706ZM264.633 88.952H256.089V96.952H264.633V88.952ZM322.946 75H318.946V79H322.946V75ZM322.946 24.792V20.792H318.946V24.792H322.946ZM331.394 24.792H335.394V20.792H331.394V24.792ZM331.394 33.816H327.394V43.6987L334.268 36.5982L331.394 33.816ZM340.13 24.792V20.792H338.435L337.256 22.0098L340.13 24.792ZM358.658 24.792L361.501 21.9789L360.327 20.792H358.658V24.792ZM367.49 33.72L364.646 36.5331L367.521 39.4394L370.364 36.5017L367.49 33.72ZM376.13 24.792V20.792H374.434L373.255 22.0103L376.13 24.792ZM394.658 24.792L397.486 21.9636L396.315 20.792H394.658V24.792ZM404.738 34.872H408.738V33.2151L407.566 32.0436L404.738 34.872ZM404.738 75V79H408.738V75H404.738ZM396.29 75H392.29V79H396.29V75ZM396.29 36.984H400.29V35.4117L399.219 34.2602L396.29 36.984ZM391.202 31.512L394.131 28.7882L392.944 27.512H391.202V31.512ZM378.338 31.512V27.512H376.669L375.495 28.6975L378.338 31.512ZM368.642 41.304L365.799 38.4895L364.642 39.6587V41.304H368.642ZM368.642 75V79H372.642V75H368.642ZM360.194 75L356.194 74.9899L356.184 79H360.194V75ZM360.29 36.984L364.29 36.9941L364.294 35.3944L363.194 34.233L360.29 36.984ZM355.106 31.512L358.01 28.761L356.826 27.512H355.106V31.512ZM342.338 31.512V27.512H340.66L339.485 28.7083L342.338 31.512ZM331.394 42.648L328.541 39.8443L327.394 41.0115V42.648H331.394ZM331.394 75V79H335.394V75H331.394ZM326.946 75V24.792H318.946V75H326.946ZM322.946 28.792H331.394V20.792H322.946V28.792ZM327.394 24.792V33.816H335.394V24.792H327.394ZM334.268 36.5982L343.004 27.5742L337.256 22.0098L328.52 31.0338L334.268 36.5982ZM340.13 28.792H358.658V20.792H340.13V28.792ZM355.814 27.6051L364.646 36.5331L370.333 30.9069L361.501 21.9789L355.814 27.6051ZM370.364 36.5017L379.004 27.5737L373.255 22.0103L364.615 30.9383L370.364 36.5017ZM376.13 28.792H394.658V20.792H376.13V28.792ZM391.829 27.6204L401.909 37.7004L407.566 32.0436L397.486 21.9636L391.829 27.6204ZM400.738 34.872V75H408.738V34.872H400.738ZM404.738 71H396.29V79H404.738V71ZM400.29 75V36.984H392.29V75H400.29ZM399.219 34.2602L394.131 28.7882L388.272 34.2358L393.36 39.7078L399.219 34.2602ZM391.202 27.512H378.338V35.512H391.202V27.512ZM375.495 28.6975L365.799 38.4895L371.484 44.1185L381.18 34.3265L375.495 28.6975ZM364.642 41.304V75H372.642V41.304H364.642ZM368.642 71H360.194V79H368.642V71ZM364.194 75.0101L364.29 36.9941L356.29 36.9739L356.194 74.9899L364.194 75.0101ZM363.194 34.233L358.01 28.761L352.202 34.263L357.386 39.735L363.194 34.233ZM355.106 27.512H342.338V35.512H355.106V27.512ZM339.485 28.7083L328.541 39.8443L334.247 45.4517L345.191 34.3157L339.485 28.7083ZM327.394 42.648V75H335.394V42.648H327.394ZM331.394 71H322.946V79H331.394V71ZM446.569 75L443.727 77.8149L444.901 79H446.569V75ZM436.585 64.92H432.585V66.5657L433.743 67.7349L436.585 64.92ZM436.585 53.496L433.743 50.6811L432.585 51.8503V53.496H436.585ZM446.569 43.416V39.416H444.901L443.727 40.6011L446.569 43.416ZM472.105 43.416V47.416H476.105V43.416H472.105ZM472.105 37.176H476.105V35.5406L474.959 34.3736L472.105 37.176ZM466.921 31.896L469.775 29.0936L468.599 27.896H466.921V31.896ZM443.113 31.896H439.113V35.896H443.113V31.896ZM443.113 24.792V20.792H439.113V24.792H443.113ZM470.569 24.792L473.411 21.9771L472.237 20.792H470.569V24.792ZM480.553 34.872H484.553V33.2263L483.395 32.0571L480.553 34.872ZM480.553 75V79H484.553V75H480.553ZM472.105 75H468.105V79H472.105V75ZM472.105 67.224H476.105V57.5671L469.277 64.3956L472.105 67.224ZM464.329 75V79H465.986L467.157 77.8284L464.329 75ZM450.313 68.28L447.485 71.1084L448.656 72.28H450.313V68.28ZM462.217 68.28V72.28H463.862L465.032 71.1222L462.217 68.28ZM472.105 58.488L474.92 61.3302L476.105 60.1563V58.488H472.105ZM472.105 50.04H476.105V46.0223L472.087 46.04L472.105 50.04ZM450.313 50.136L450.295 46.136L448.67 46.1432L447.511 47.2817L450.313 50.136ZM445.033 55.32L442.231 52.4657L441.033 53.6416V55.32H445.033ZM445.033 63H441.033V64.6569L442.205 65.8284L445.033 63ZM449.411 72.1851L439.427 62.1051L433.743 67.7349L443.727 77.8149L449.411 72.1851ZM440.585 64.92V53.496H432.585V64.92H440.585ZM439.427 56.3109L449.411 46.2309L443.727 40.6011L433.743 50.6811L439.427 56.3109ZM446.569 47.416H472.105V39.416H446.569V47.416ZM476.105 43.416V37.176H468.105V43.416H476.105ZM474.959 34.3736L469.775 29.0936L464.067 34.6984L469.251 39.9784L474.959 34.3736ZM466.921 27.896H443.113V35.896H466.921V27.896ZM447.113 31.896V24.792H439.113V31.896H447.113ZM443.113 28.792H470.569V20.792H443.113V28.792ZM467.727 27.6069L477.711 37.6869L483.395 32.0571L473.411 21.9771L467.727 27.6069ZM476.553 34.872V75H484.553V34.872H476.553ZM480.553 71H472.105V79H480.553V71ZM476.105 75V67.224H468.105V75H476.105ZM469.277 64.3956L461.501 72.1716L467.157 77.8284L474.933 70.0524L469.277 64.3956ZM464.329 71H446.569V79H464.329V71ZM450.313 72.28H462.217V64.28H450.313V72.28ZM465.032 71.1222L474.92 61.3302L469.29 55.6458L459.402 65.4378L465.032 71.1222ZM476.105 58.488V50.04H468.105V58.488H476.105ZM472.087 46.04L450.295 46.136L450.331 54.136L472.123 54.04L472.087 46.04ZM447.511 47.2817L442.231 52.4657L447.835 58.1743L453.115 52.9903L447.511 47.2817ZM441.033 55.32V63H449.033V55.32H441.033ZM442.205 65.8284L447.485 71.1084L453.141 65.4516L447.861 60.1716L442.205 65.8284ZM526.375 75L523.562 77.8438L524.731 79H526.375V75ZM517.543 66.264H513.543V67.9337L514.73 69.1078L517.543 66.264ZM517.543 31.512H521.543V27.512H517.543V31.512ZM512.263 31.512H508.263V35.512H512.263V31.512ZM512.263 24.792V20.792H508.263V24.792H512.263ZM517.735 24.792V28.792H521.132L521.682 25.44L517.735 24.792ZM519.847 11.928V7.928H516.45L515.9 11.28L519.847 11.928ZM525.991 11.928H529.991V7.928H525.991V11.928ZM525.991 24.792H521.991V28.792H525.991V24.792ZM536.647 24.792H540.647V20.792H536.647V24.792ZM536.647 31.512V35.512H540.647V31.512H536.647ZM525.991 31.512V27.512H521.991V31.512H525.991ZM525.991 63.288H521.991V64.8963L523.104 66.0569L525.991 63.288ZM530.503 67.992L527.616 70.7609L528.797 71.992H530.503V67.992ZM538.855 67.992H542.855V63.992H538.855V67.992ZM538.855 75V79H542.855V75H538.855ZM529.188 72.1562L520.356 63.4202L514.73 69.1078L523.562 77.8438L529.188 72.1562ZM521.543 66.264V31.512H513.543V66.264H521.543ZM517.543 27.512H512.263V35.512H517.543V27.512ZM516.263 31.512V24.792H508.263V31.512H516.263ZM512.263 28.792H517.735V20.792H512.263V28.792ZM521.682 25.44L523.794 12.576L515.9 11.28L513.788 24.144L521.682 25.44ZM519.847 15.928H525.991V7.928H519.847V15.928ZM521.991 11.928V24.792H529.991V11.928H521.991ZM525.991 28.792H536.647V20.792H525.991V28.792ZM532.647 24.792V31.512H540.647V24.792H532.647ZM536.647 27.512H525.991V35.512H536.647V27.512ZM521.991 31.512V63.288H529.991V31.512H521.991ZM523.104 66.0569L527.616 70.7609L533.39 65.2231L528.878 60.5191L523.104 66.0569ZM530.503 71.992H538.855V63.992H530.503V71.992ZM534.855 67.992V75H542.855V67.992H534.855ZM538.855 71H526.375V79H538.855V71ZM579.171 75L576.343 77.8284L577.514 79H579.171V75ZM569.091 64.92H565.091V66.5769L566.263 67.7484L569.091 64.92ZM569.091 34.872L566.263 32.0436L565.091 33.2151V34.872H569.091ZM579.171 24.792V20.792H577.514L576.343 21.9636L579.171 24.792ZM601.539 24.792L604.368 21.9636L603.196 20.792H601.539V24.792ZM611.619 34.872H615.619V33.2151L614.448 32.0436L611.619 34.872ZM611.619 53.016V57.016H615.619V53.016H611.619ZM577.539 53.016V49.016H573.539V53.016H577.539ZM577.539 62.712H573.539V64.3689L574.711 65.5404L577.539 62.712ZM582.819 67.992L579.991 70.8204L581.162 71.992H582.819V67.992ZM610.755 67.992H614.755V63.992H610.755V67.992ZM610.755 75V79H614.755V75H610.755ZM577.539 46.296H573.539V50.296H577.539V46.296ZM603.171 46.296V50.296H607.171V46.296H603.171ZM603.171 36.792H607.171V35.1351L606 33.9636L603.171 36.792ZM597.891 31.512L600.72 28.6836L599.548 27.512H597.891V31.512ZM582.819 31.512V27.512H581.162L579.991 28.6836L582.819 31.512ZM577.539 36.792L574.711 33.9636L573.539 35.1351V36.792H577.539ZM582 72.1716L571.92 62.0916L566.263 67.7484L576.343 77.8284L582 72.1716ZM573.091 64.92V34.872H565.091V64.92H573.091ZM571.92 37.7004L582 27.6204L576.343 21.9636L566.263 32.0436L571.92 37.7004ZM579.171 28.792H601.539V20.792H579.171V28.792ZM598.711 27.6204L608.791 37.7004L614.448 32.0436L604.368 21.9636L598.711 27.6204ZM607.619 34.872V53.016H615.619V34.872H607.619ZM611.619 49.016H577.539V57.016H611.619V49.016ZM573.539 53.016V62.712H581.539V53.016H573.539ZM574.711 65.5404L579.991 70.8204L585.648 65.1636L580.368 59.8836L574.711 65.5404ZM582.819 71.992H610.755V63.992H582.819V71.992ZM606.755 67.992V75H614.755V67.992H606.755ZM610.755 71H579.171V79H610.755V71ZM577.539 50.296H603.171V42.296H577.539V50.296ZM607.171 46.296V36.792H599.171V46.296H607.171ZM606 33.9636L600.72 28.6836L595.063 34.3404L600.343 39.6204L606 33.9636ZM597.891 27.512H582.819V35.512H597.891V27.512ZM579.991 28.6836L574.711 33.9636L580.368 39.6204L585.648 34.3404L579.991 28.6836ZM573.539 36.792V46.296H581.539V36.792H573.539Z" fill="#184360" mask="url(#path-1-outside-1_5_2)"/>
</svg>
